/* XPM */
static char *result[] = {
/* columns rows colors chars-per-pixel */
"64 64 38 1 ",
"  c black",
". c gray1",
"X c #6D122E",
"o c #6D122F",
"O c #6D132F",
"+ c #6E132F",
"@ c #6D142F",
"# c #6E1330",
"$ c #315940",
"% c #325A41",
"& c #FF3F35",
"* c #C05921",
"= c #C15A22",
"- c #FF4236",
"; c #FF4336",
": c #FF4337",
"> c #FF4437",
", c #A61C47",
"< c #A91A44",
"1 c #A71D48",
"2 c #5BB042",
"3 c #5CB143",
"4 c #EBB44D",
"5 c #ECB44C",
"6 c #ECB44D",
"7 c #ECB54E",
"8 c #FAE771",
"9 c #F9E873",
"0 c #F9E874",
"q c #FAE874",
"w c #FAE974",
"e c #FAE975",
"r c #D2D5EC",
"t c #D2D5ED",
"y c #D3D5ED",
"u c #D3D6ED",
"i c white",
"p c None",
/* pixels */
"pppppppppppppppppppppppppppppppppppppppppppppppppppppppppppppppp",
"pppppppppppppppppppppppppppppppppppppppppppppppppppppppppppppppp",
"pppppppppppppppppppppppppppppppppppppppppppppppppppppppppppppppp",
"pppppppppppppppppppppppppppppppppppppppppppppppppppppppppppppppp",
"pppppppppppppppppppppppppppppppppppppppppppppppppppppppppppppppp",
"pppppppppppppppppppppppppppppppppppppppppppppppppppppppppppppppp",
"pppppppppppppppppppppppppppppppppppppppppppppppppppppppppppppppp",
"pppppppppppppppppppppppppppppppppppppppppppppppppppppppppppppppp",
"pppppppppppppppppppppppppppppppppppppppppppppppppppppppppppppppp",
"pppppppppppppppppppppppppppppppppppppppppppppppppppppppppppppppp",
"pppppppppppppppppppppppppppppppppppppppppppppppppppppppppppppppp",
"pppppppppppppppppppppppppppppppppppppppppppppppppppppppppppppppp",
"pppppppppppppppppppppppppppppppppppppppppppppppppppppppppppppppp",
"pppppppppppppppppppppppppppppppppppppppppppppppppppppppppppppppp",
"pppppppppppppppppppppppppppppppppppppppppppppppppppppppppppppppp",
"pppppppppppppppppppppp                     ppppppppppppppppppppp",
"ppppppppppppppppppppp                       pppppppppppppppppppp",
"pppppppppppppppppppp  :;:-iii::::<<@oOOOOOO  ppppppppppppppppppp",
"pppppppppppppppppp   :::::iii::--&<<OOoOOOoO  pppppppppppppppppp",
"ppppppppppppppppp    :::::iii:::;-:<OOOoOOOOO  ppppppppppppppppp",
"pppppppppppppppp  :-:::::::::;-:111,ooXOOO+XX  ppppppppppppppppp",
"ppppppppppppppp  ::@#OOOOOOOOOO::,,1Oo+oOOOO+  ppppppppppppppppp",
"ppppppppppppppp  :oOO44444444444:,,,Oo#OOXOXo  ppppppppppppppppp",
"ppppppppppppppp  :OXX4  44444..4:11,oO#XOOO+o  ppppppppppppppppp",
"pppppppppppppppp     0 .00009..09we94464==**4  ppppppppppppppppp",
"ppppppppppppppppp    w .00000..0q0w04747*==*=  ppppppppppppppppp",
"ppppppppppppppppppp  q  0eq0w..0q0qe4444=***=  ppppppppppppppppp",
"ppppppppppppppppppp  0e0e00eqe0000004447**=*=*  pppppppppppppppp",
"pppppppppppppppppp  0000O#+0e00009004647****==  pppppppppppppppp",
"pppppppppppppppppp  ee0qO+00eq9wwe004444=***===  ppppppppppppppp",
"pppppppppppppppppp  00q00499wee000004444****=**  ppppppppppppppp",
"pppppppppppppppppp  eq044046000000006444=*===**  ppppppppppppppp",
"pppppppppppppppppp  e0eq00q00e00e00744444***==  pppppppppppppppp",
"ppppppppppppppppp    0w0wq00w000qe474464464    ppppppppppppppppp",
"pppppppppppppppp   888  i33iii33iityuu4444      pppppppppppppppp",
"ppppppppppppppp   888884i22iii33iiyuy644655888   ppppppppppppppp",
"ppppppppppppppp  8888888i33iii33iiyryu764588888   pppppppppppppp",
"ppppppppppppppp  88888884i33iii33iuyy34478888888  pppppppppppppp",
"ppppppppppppppp  88888884i33iii33it3333$78888888  pppppppppppppp",
"ppppppppppppppp   888884443223233333233$ 8888888  pppppppppppppp",
"pppppppppppppppp   8884  22322222333322$  88888   pppppppppppppp",
"ppppppppppppppppp       322333332333223%   888   ppppppppppppppp",
"pppppppppppppppppp      22333$%%  23223%$       pppppppppppppppp",
"pppppppppppppppppppppp  2332$$$   222222$%,    ppppppppppppppppp",
"pppppppppppppppppppppp  ii32$%$    23223%::1   ppppppppppppppppp",
"ppppppppppppppppppppp  iii::,1,    3222ii::,   ppppppppppppppppp",
"pppppppppppppppppppp  iiii::,,,  p  iiiii;::,  ppppppppppppppppp",
"pppppppppppppppppppp  iiii>;111  p  iiiiii::   ppppppppppppppppp",
"pppppppppppppppppppp  iiii;;,11  p  iiiiii::  pppppppppppppppppp",
"pppppppppppppppppppp  yytytuuyy  p  tuuyyr   ppppppppppppppppppp",
"pppppppppppppppppppppppppppppppppppppppppppppppppppppppppppppppp",
"pppppppppppppppppppppppppppppppppppppppppppppppppppppppppppppppp",
"pppppppppppppppppppppppppppppppppppppppppppppppppppppppppppppppp",
"pppppppppppppppppppppppppppppppppppppppppppppppppppppppppppppppp",
"pppppppppppppppppppppppppppppppppppppppppppppppppppppppppppppppp",
"pppppppppppppppppppppppppppppppppppppppppppppppppppppppppppppppp",
"pppppppppppppppppppppppppppppppppppppppppppppppppppppppppppppppp",
"pppppppppppppppppppppppppppppppppppppppppppppppppppppppppppppppp",
"pppppppppppppppppppppppppppppppppppppppppppppppppppppppppppppppp",
"pppppppppppppppppppppppppppppppppppppppppppppppppppppppppppppppp",
"pppppppppppppppppppppppppppppppppppppppppppppppppppppppppppppppp",
"pppppppppppppppppppppppppppppppppppppppppppppppppppppppppppppppp",
"pppppppppppppppppppppppppppppppppppppppppppppppppppppppppppppppp",
"pppppppppppppppppppppppppppppppppppppppppppppppppppppppppppppppp"
};
