/* XPM */
static char *result[] = {
/* columns rows colors chars-per-pixel */
"64 64 12 1 ",
"  c black",
". c #6D142F",
"X c #315940",
"o c #FF3F35",
"O c #C05A23",
"+ c #A91A44",
"@ c #5BB042",
"# c #ECB44C",
"$ c #FAE771",
"% c #EFD2FF",
"& c white",
"* c None",
/* pixels */
"****************************************************************",
"****************************************************************",
"****************************************************************",
"****************************************************************",
"****************************************************************",
"****************************************************************",
"****************************************************************",
"****************************************************************",
"****************************************************************",
"****************************************************************",
"****************************************************************",
"****************************************************************",
"****************************************************************",
"****************************************************************",
"****************************************************************",
"****************************************************************",
"****************************************************************",
"********************                      **********************",
"*******************                        *********************",
"******************  ooooo&&&&ooo++........  ********************",
"*****************  oooooo&&&&oooo++........  *******************",
"****************   oooooo&&&&ooooo+.........  ******************",
"***************  oooooooooooooo++++.........  ******************",
"**************  oo............oo+++.........  ******************",
"**************  o...###########o+++.........  ******************",
"**************  o...###########o+++.........  ******************",
"***************     $$$$$$$$$$$$$$#####OOOO#  ******************",
"****************    $$  $$$$$  $$$####OOOOO#  ******************",
"******************  $$  $$$$$  $$$####OOOOO#  ******************",
"******************  $$  $$$$$  $$$####OOOOO#  ******************",
"*****************  $$$  $$$$$  $$$####OOOOOO   *****************",
"****************  $$$$$$$$$$$$$$$$####OOOOOOO  *****************",
"****************  $$$$$...$$$$$$$$####OOOOOOO  *****************",
"****************  $$$$$..$$$$$$$$$####OOOOOOO  *****************",
"****************  $$$$$$#$$$$$$$$$####OOOOOOO  *****************",
"****************  $$$$##$##$$$$$$#####OOOOOOO  *****************",
"*****************  $$$$$$$$$$$$$#######OOOOO  ******************",
"******************     &&@@&&&@@%%%%%%%%%    *******************",
"*******************    &@@@&&@@@%%%####%    ********************",
"********************** &@@&&&@@&%%%#####++  ********************",
"********************** &@@&&&@@&%%X$$$$#++  ********************",
"**********************  @@@@@@@@XX$$$$$$++  ********************",
"**********************  @@@@@@@@XX$$$$$$++  ********************",
"**********************  @@@@@@@XX@$$$$$$+o  ********************",
"**********************  @@@@@XX+@@$$$$$$oo  ********************",
"**********************  @@@@@@++@@@$$$$Xoo  ********************",
"**********************   &&@@oo+ @@@XXX&%o  ********************",
"**********************  &&&&&ooo+ @@@XX&&  *********************",
"**********************  &&&&&ooo+         **********************",
"**********************  %%%%%%%          ***********************",
"****************************************************************",
"****************************************************************",
"****************************************************************",
"****************************************************************",
"****************************************************************",
"****************************************************************",
"****************************************************************",
"****************************************************************",
"****************************************************************",
"****************************************************************",
"****************************************************************",
"****************************************************************",
"****************************************************************",
"****************************************************************"
};
