/* XPM */
static char *result[] = {
/* columns rows colors chars-per-pixel */
"64 64 39 1 ",
"  c black",
". c gray1",
"X c #6D122E",
"o c #6D122F",
"O c #6D132F",
"+ c #6E132F",
"@ c #6D142F",
"# c #6E1330",
"$ c #315940",
"% c #325A41",
"& c #FF3F35",
"* c #C05921",
"= c #C15A22",
"- c #FF4236",
"; c #FF4336",
": c #FF4337",
"> c #FF4437",
", c #A61C47",
"< c #A91A44",
"1 c #A71D48",
"2 c #5BB042",
"3 c #5CB143",
"4 c #EBB34C",
"5 c #EBB44D",
"6 c #ECB44C",
"7 c #ECB44D",
"8 c #ECB54E",
"9 c #FAE771",
"0 c #F9E873",
"q c #F9E874",
"w c #FAE874",
"e c #FAE974",
"r c #FAE975",
"t c #D2D5EC",
"y c #D2D5ED",
"u c #D3D5ED",
"i c #D3D6ED",
"p c white",
"a c None",
/* pixels */
"aaaaaaaaaaaaaaaaaaaaaaaaaaaaaaaaaaaaaaaaaaaaaaaaaaaaaaaaaaaaaaaa",
"aaaaaaaaaaaaaaaaaaaaaaaaaaaaaaaaaaaaaaaaaaaaaaaaaaaaaaaaaaaaaaaa",
"aaaaaaaaaaaaaaaaaaaaaaaaaaaaaaaaaaaaaaaaaaaaaaaaaaaaaaaaaaaaaaaa",
"aaaaaaaaaaaaaaaaaaaaaaaaaaaaaaaaaaaaaaaaaaaaaaaaaaaaaaaaaaaaaaaa",
"aaaaaaaaaaaaaaaaaaaaaaaaaaaaaaaaaaaaaaaaaaaaaaaaaaaaaaaaaaaaaaaa",
"aaaaaaaaaaaaaaaaaaaaaaaaaaaaaaaaaaaaaaaaaaaaaaaaaaaaaaaaaaaaaaaa",
"aaaaaaaaaaaaaaaaaaaaaaaaaaaaaaaaaaaaaaaaaaaaaaaaaaaaaaaaaaaaaaaa",
"aaaaaaaaaaaaaaaaaaaaaaaaaaaaaaaaaaaaaaaaaaaaaaaaaaaaaaaaaaaaaaaa",
"aaaaaaaaaaaaaaaaaaaaaaaaaaaaaaaaaaaaaaaaaaaaaaaaaaaaaaaaaaaaaaaa",
"aaaaaaaaaaaaaaaaaaaaaaaaaaaaaaaaaaaaaaaaaaaaaaaaaaaaaaaaaaaaaaaa",
"aaaaaaaaaaaaaaaaaaaaaaaaaaaaaaaaaaaaaaaaaaaaaaaaaaaaaaaaaaaaaaaa",
"aaaaaaaaaaaaaaaaaaaaaaaaaaaaaaaaaaaaaaaaaaaaaaaaaaaaaaaaaaaaaaaa",
"aaaaaaaaaaaaaaaaaaaaaaaaaaaaaaaaaaaaaaaaaaaaaaaaaaaaaaaaaaaaaaaa",
"aaaaaaaaaaaaaaaaaaaaaaaaaaaaaaaaaaaaaaaaaaaaaaaaaaaaaaaaaaaaaaaa",
"aaaaaaaaaaaaaaaaaaaaaaaaaaaaaaaaaaaaaaaaaaaaaaaaaaaaaaaaaaaaaaaa",
"aaaaaaaaaaaaaaaaaaaaaaaaaaaaaaaaaaaaaaaaaaaaaaaaaaaaaaaaaaaaaaaa",
"aaaaaaaaaaaaaaaaaaaaaa                     aaaaaaaaaaaaaaaaaaaaa",
"aaaaaaaaaaaaaaaaaaaaa                       aaaaaaaaaaaaaaaaaaaa",
"aaaaaaaaaaaaaaaaaaaa  :::ppp--<<@@@@@@@@@@   aaaaaaaaaaaaaaaaaaa",
"aaaaaaaaaaaaaaaaa    ::::ppp-:&<<@O++OOoOOO   aaaaaaaaaaaaaaaaaa",
"aaaaaaaaaaaaaaaa     ::::ppp::-:<+OoooXOOO+X  aaaaaaaaaaaaaaaaaa",
"aaaaaaaaaaaaaaa  :-;:>:;;::-1,,<<OO+Oo+oOOOO  aaaaaaaaaaaaaaaaaa",
"aaaaaaaaaaaaaa  ::@@@@@@@@@--111,XOOOo#OOXOX  aaaaaaaaaaaaaaaaaa",
"aaaaaaaaaaaaaa  :oOOO+888888-,,1,+OXoO#XOOO+  aaaaaaaaaaaaaaaaaa",
"aaaaaaaaaaaaaa  :OXooX  888 -,11,O+XoOOXO+oX  aaaaaaaaaaaaaaaaaa",
"aaaaaaaaaaaaaaa        .qqq. reww58558*=*==5  aaaaaaaaaaaaaaaaaa",
"aaaaaaaaaaaaaaaa        rrw..qwew57855**=***  aaaaaaaaaaaaaaaaaa",
"aaaaaaaaaaaaaaaaa     . rqq..rqrq55555*=**=*  aaaaaaaaaaaaaaaaaa",
"aaaaaaaaaaaaaaaaaa   qqqwrrqrqqqq4585=*=****=  aaaaaaaaaaaaaaaaa",
"aaaaaaaaaaaaaaaaaa  rrOOOrqqrw0ee8555***=***=  aaaaaaaaaaaaaaaaa",
"aaaaaaaaaaaaaaaaaa  rqOOq000errqr5585*******=  aaaaaaaaaaaaaaaaa",
"aaaaaaaaaaaaaaaaaa  rwq5qqqeqqqqr5587***=*===  aaaaaaaaaaaaaaaaa",
"aaaaaaaaaaaaaaaaaa  r55w55wqqrqqr5555***=***=  aaaaaaaaaaaaaaaaa",
"aaaaaaaaaaaaaaaaaa  qwqqrwqqeqqq78585*=**=**=  aaaaaaaaaaaaaaaaa",
"aaaaaaaaaaaaaaaaaa   qqrqrqrqqe8555788******  aaaaaaaaaaaaaaaaaa",
"aaaaaaaaaaaaaaaaa       22pp22pptuuiu7557y   aaaaaaaaaaaaaaaaaaa",
"aaaaaaaaaaaaaaaa   999  23pp22ppitut788758     aaaaaaaaaaaaaaaaa",
"aaaaaaaaaaaaaaa   99999523pp23pptiiuu55566999   aaaaaaaaaaaaaaaa",
"aaaaaaaaaaaaaaa  9999999523pp22piiyu3585699999  aaaaaaaaaaaaaaaa",
"aaaaaaaaaaaaaaa  9999999523pp22pui3322%59999999  aaaaaaaaaaaaaaa",
"aaaaaaaaaaaaaaa  999999952232222233222$$9999999  aaaaaaaaaaaaaaa",
"aaaaaaaaaaaaaaa   99999532233333233322%%9999999  aaaaaaaaaaaaaaa",
"aaaaaaaaaaaaaaaa   999  223332332323223% 99999   aaaaaaaaaaaaaaa",
"aaaaaaaaaaaaaaaaa       23333%%   22222$  999   aaaaaaaaaaaaaaaa",
"aaaaaaaaaaaaaaaaaa      pp33$%%   323223%:11   aaaaaaaaaaaaaaaaa",
"aaaaaaaaaaaaaaaaaaaaa  ppp::,1,   232223p::,   aaaaaaaaaaaaaaaaa",
"aaaaaaaaaaaaaaaaaaaa  pppp::,,,    22pppp;::,  aaaaaaaaaaaaaaaaa",
"aaaaaaaaaaaaaaaaaaaa  pppp>;,11  a  pppppp::1  aaaaaaaaaaaaaaaaa",
"aaaaaaaaaaaaaaaaaaaa  pppp;;,,1  a  pppppp::   aaaaaaaaaaaaaaaaa",
"aaaaaaaaaaaaaaaaaaaa  uuyuyiiuu  a  yiiuut    aaaaaaaaaaaaaaaaaa",
"aaaaaaaaaaaaaaaaaaaaaaaaaaaaaaaaaaaaaaaaaaaaaaaaaaaaaaaaaaaaaaaa",
"aaaaaaaaaaaaaaaaaaaaaaaaaaaaaaaaaaaaaaaaaaaaaaaaaaaaaaaaaaaaaaaa",
"aaaaaaaaaaaaaaaaaaaaaaaaaaaaaaaaaaaaaaaaaaaaaaaaaaaaaaaaaaaaaaaa",
"aaaaaaaaaaaaaaaaaaaaaaaaaaaaaaaaaaaaaaaaaaaaaaaaaaaaaaaaaaaaaaaa",
"aaaaaaaaaaaaaaaaaaaaaaaaaaaaaaaaaaaaaaaaaaaaaaaaaaaaaaaaaaaaaaaa",
"aaaaaaaaaaaaaaaaaaaaaaaaaaaaaaaaaaaaaaaaaaaaaaaaaaaaaaaaaaaaaaaa",
"aaaaaaaaaaaaaaaaaaaaaaaaaaaaaaaaaaaaaaaaaaaaaaaaaaaaaaaaaaaaaaaa",
"aaaaaaaaaaaaaaaaaaaaaaaaaaaaaaaaaaaaaaaaaaaaaaaaaaaaaaaaaaaaaaaa",
"aaaaaaaaaaaaaaaaaaaaaaaaaaaaaaaaaaaaaaaaaaaaaaaaaaaaaaaaaaaaaaaa",
"aaaaaaaaaaaaaaaaaaaaaaaaaaaaaaaaaaaaaaaaaaaaaaaaaaaaaaaaaaaaaaaa",
"aaaaaaaaaaaaaaaaaaaaaaaaaaaaaaaaaaaaaaaaaaaaaaaaaaaaaaaaaaaaaaaa",
"aaaaaaaaaaaaaaaaaaaaaaaaaaaaaaaaaaaaaaaaaaaaaaaaaaaaaaaaaaaaaaaa",
"aaaaaaaaaaaaaaaaaaaaaaaaaaaaaaaaaaaaaaaaaaaaaaaaaaaaaaaaaaaaaaaa",
"aaaaaaaaaaaaaaaaaaaaaaaaaaaaaaaaaaaaaaaaaaaaaaaaaaaaaaaaaaaaaaaa"
};
